<?xml version="1.0" standalone="no"?>
<!DOCTYPE svg PUBLIC "-//W3C//DTD SVG 20010904//EN"
 "http://www.w3.org/TR/2001/REC-SVG-20010904/DTD/svg10.dtd">
<svg version="1.0" xmlns="http://www.w3.org/2000/svg"
 width="260.000000pt" height="260.000000pt" viewBox="0 0 260.000000 260.000000"
 preserveAspectRatio="xMidYMid meet">
<metadata>
Created by potrace 1.11, written by Peter Selinger 2001-2013
</metadata>
<g transform="translate(0.000000,260.000000) scale(0.100000,-0.100000)"
fill="#000000" stroke="none">
<path d="M1159 2596 c-2 -2 -22 -7 -44 -10 -83 -12 -111 -19 -191 -42 -399
-115 -732 -445 -863 -854 -53 -167 -81 -430 -46 -430 9 0 15 10 16 23 6 188
19 270 66 412 103 319 335 587 639 738 186 92 346 130 554 131 137 1 216 -8
331 -38 548 -143 939 -639 948 -1203 1 -52 4 -63 18 -63 14 0 15 12 10 118
-33 590 -460 1080 -1047 1199 -65 13 -381 28 -391 19z"/>
<path d="M1259 2476 c-2 -2 -35 -6 -74 -9 -465 -40 -927 -428 -1041 -873 -23
-91 -30 -177 -26 -296 l2 -38 143 0 143 0 1 163 c1 89 2 172 2 185 1 22 3 22
146 22 143 0 145 0 146 -22 0 -13 0 -95 -1 -183 l-1 -160 40 0 c34 0 41 3 42
20 0 11 1 126 2 255 l2 235 58 2 c47 2 57 -1 58 -15 1 -9 3 -75 4 -147 2 -71
3 -133 4 -137 1 -5 19 -8 41 -8 l40 0 1 183 c0 100 1 247 2 327 l2 145 102 3
103 3 2 -373 c3 -365 3 -373 23 -374 11 0 29 3 40 6 19 7 20 18 21 271 1 145
3 269 3 274 1 12 273 15 281 4 3 -4 5 -158 5 -343 0 -292 2 -336 15 -337 22
-2 64 2 69 7 2 1 4 112 5 246 l1 243 70 0 70 0 1 -204 c0 -217 1 -221 51 -217
30 3 38 12 39 44 1 15 2 30 3 33 1 3 64 6 141 6 121 0 140 -2 141 -16 1 -9 2
-43 3 -76 l1 -60 142 -1 142 -2 3 47 c8 127 -32 317 -97 458 -120 261 -375
504 -647 619 -83 35 -220 73 -286 79 -120 11 -179 14 -183 11z"/>
<path d="M79 1122 c-1 -9 -1 -253 0 -273 1 -13 13 -15 66 -14 36 1 71 8 80 15
36 30 57 73 59 118 3 61 -8 93 -45 128 -25 24 -38 28 -94 30 -36 2 -65 0 -66
-4z"/>
<path d="M346 1121 c-2 -3 -3 -69 -2 -146 l1 -140 74 0 75 0 3 33 c4 34 5 33
-54 35 -26 1 -46 23 -36 40 2 4 21 7 42 7 36 0 38 1 37 33 -1 30 -4 32 -38 35
-30 3 -38 7 -38 23 0 15 6 20 23 19 62 -5 66 -1 58 61 -1 8 -140 8 -145 0z"/>
<path d="M549 1111 c-2 -20 2 -45 7 -50 2 -2 20 -4 40 -3 42 2 42 0 -17 -122
-22 -44 -39 -85 -39 -91 0 -9 134 -13 183 -6 5 0 7 15 5 33 -3 30 -6 32 -40
33 -20 0 -39 3 -43 6 -3 4 15 50 40 103 25 52 45 100 45 105 0 4 -40 8 -90 8
-75 0 -90 -3 -91 -16z"/>
<path d="M841 1117 c-40 -20 -64 -62 -69 -119 -10 -129 89 -205 185 -142 23
15 54 73 46 87 -7 12 -63 8 -63 -6 0 -7 -9 -18 -20 -24 -23 -15 -67 -2 -77 23
-12 32 -6 84 12 104 24 26 46 25 78 -4 30 -28 67 -25 67 6 0 11 -15 35 -34 54
-37 37 -80 44 -125 21z"/>
<path d="M1105 1108 c-68 -53 -74 -180 -13 -245 24 -25 75 -38 113 -29 98 25
121 213 32 274 -43 28 -96 29 -132 0z"/>
<path d="M1354 1117 c-2 -7 -3 -73 -2 -147 3 -146 0 -138 57 -131 5 1 9 26 9
56 -1 30 1 57 4 60 3 3 31 -24 62 -60 32 -36 62 -63 66 -60 5 3 8 69 7 148
l-2 142 -30 0 c-30 0 -30 -1 -31 -57 0 -32 -3 -60 -6 -63 -3 -3 -21 14 -40 37
-79 95 -84 99 -94 75z"/>
<path d="M1609 1114 c-4 -47 -3 -49 26 -54 l30 -5 0 -110 0 -110 30 0 c33 0
32 -5 34 173 1 51 1 52 31 52 28 0 30 3 26 28 -2 15 -5 30 -5 33 -1 3 -39 6
-86 7 -65 0 -85 -3 -86 -14z"/>
<path d="M1839 1121 c-6 -27 -3 -281 3 -282 5 -1 15 -1 23 -1 32 0 35 3 35 42
0 53 20 52 47 -3 19 -38 24 -43 54 -42 38 2 38 7 10 65 -15 30 -15 40 -5 56
37 56 16 145 -40 163 -33 11 -125 13 -127 2z"/>
<path d="M2140 1117 c-38 -18 -70 -90 -66 -146 5 -65 21 -98 58 -121 60 -36
123 -21 160 39 29 46 31 143 3 184 -34 52 -101 71 -155 44z"/>
<path d="M2384 1122 c-6 -4 -10 -59 -10 -147 l1 -140 65 0 c81 -1 87 1 86 28
-2 35 -13 45 -46 42 -17 -1 -33 2 -36 7 -3 5 -6 48 -5 96 0 48 -2 95 -5 105
-5 17 -31 22 -50 9z"/>
<path d="M156 692 c-6 -11 87 -155 143 -222 212 -253 507 -417 829 -460 117
-16 309 -10 422 12 316 63 602 243 792 498 62 84 113 168 106 176 -13 12 -37
-14 -88 -93 -56 -88 -211 -256 -285 -309 -22 -16 -42 -31 -45 -34 -34 -35
-244 -138 -345 -170 -147 -45 -237 -58 -397 -55 -160 2 -249 16 -383 60 -271
89 -497 261 -658 501 -60 89 -81 112 -91 96z"/>
<path d="M373 692 c-68 -1 -123 -6 -123 -10 0 -4 29 -45 64 -92 63 -84 164
-186 241 -246 146 -112 356 -199 555 -231 59 -10 280 -9 350 0 249 34 509 165
683 344 70 71 178 214 174 228 -3 9 -1602 15 -1944 7z"/>
</g>
</svg>
