<svg xmlns="http://www.w3.org/2000/svg" display="none">
  <symbol id="ru-flag" viewBox="0 0 512 512">
    <g>
      <polygon style="fill:#F0F0F0;" points="0,85.33 0,199.107 0,312.885 0,426.662 512,426.662 512,312.885 512,199.107 512,85.33 "/>
      <rect y="85.333" style="fill:#0052B4;" width="512" height="341.337"/>
      <rect y="85.333" style="fill:#F0F0F0;" width="512" height="113.775"/>
      <rect y="312.884" style="fill:#D80027;" width="512" height="113.775"/>
    </g>
  </symbol>

  <symbol id="uz-flag" viewBox="0 0 512.001 512.001">
    <g>
      <path style="fill:#82AFFF;" d="M512,200.093H0V97.104c0-4.875,3.953-8.828,8.828-8.828h494.345c4.875,0,8.828,3.953,8.828,8.828L512,200.093L512,200.093z"/>
      <path style="fill:#73AF00;" d="M503.172,423.725H8.828c-4.875,0-8.828-3.953-8.828-8.828V311.909h512v102.988C512,419.773,508.047,423.725,503.172,423.725z"/>
      <rect y="200.091" style="fill:#F5F5F5;" width="512" height="111.81"/>
      <rect y="190.161" style="fill:#FF4B55;" width="512" height="13.942"/>
      <rect y="307.891" style="fill:#FF4B55;" width="512" height="13.942"/>
      <path style="fill:#F5F5F5;" d="M113.491,172.072c-18.072,0-32.721-14.614-32.721-32.621c0-18.073,14.648-32.753,32.721-32.753c0.07,0,0.138,0,0.206,0.001c1.064,0.014,1.437-1.399,0.499-1.902c-5.565-2.983-11.916-4.671-18.668-4.622c-21.624,0.154-39.189,18.073-38.959,39.697c0.226,21.401,17.722,38.724,39.242,38.724c6.659,0,12.921-1.685,18.417-4.627c0.935-0.501,0.557-1.914-0.503-1.899C113.645,172.072,113.568,172.072,113.491,172.072z"/>
      <path style="fill:#F5F5F5;" d="M139.113,163.051l-1.461,4.382l-4.619,0.035c-0.598,0.004-0.846,0.768-0.365,1.123l3.716,2.744l-1.394,4.404c-0.18,0.57,0.469,1.042,0.956,0.694l3.758-2.686l3.758,2.686c0.487,0.348,1.135-0.124,0.956-0.694l-1.394-4.404l3.715-2.744c0.481-0.355,0.233-1.119-0.365-1.123l-4.619-0.035l-1.461-4.382C140.105,162.484,139.303,162.484,139.113,163.051z"/>
      <path style="fill:#F5F5F5;" d="M171.656,163.051l-1.461,4.382l-4.619,0.035c-0.598,0.004-0.846,0.768-0.365,1.123l3.715,2.744l-1.394,4.404c-0.18,0.57,0.469,1.042,0.956,0.694l3.758-2.686l3.758,2.686c0.487,0.348,1.135-0.124,0.956-0.694l-1.394-4.404l3.715-2.744c0.481-0.355,0.233-1.119-0.365-1.123l-4.619-0.035l-1.461-4.382C172.647,162.484,171.844,162.484,171.656,163.051z"/>
      <path style="fill:#F5F5F5;" d="M204.198,163.051l-1.461,4.382l-4.619,0.035c-0.598,0.004-0.846,0.768-0.365,1.123l3.716,2.744l-1.394,4.404c-0.18,0.57,0.469,1.042,0.956,0.694l3.758-2.686l3.758,2.686c0.487,0.348,1.135-0.124,0.956-0.694l-1.394-4.404l3.715-2.744c0.481-0.355,0.233-1.119-0.365-1.123l-4.619-0.035l-1.461-4.382C205.19,162.484,204.387,162.484,204.198,163.051z"/>
      <path style="fill:#F5F5F5;" d="M236.74,163.051l-1.461,4.382l-4.619,0.035c-0.598,0.004-0.846,0.768-0.365,1.123l3.715,2.744l-1.394,4.404c-0.18,0.57,0.469,1.042,0.956,0.694l3.758-2.686l3.758,2.686c0.487,0.348,1.135-0.124,0.956-0.694l-1.394-4.404l3.715-2.744c0.481-0.355,0.233-1.119-0.365-1.123l-4.619-0.035l-1.461-4.382C237.732,162.484,236.929,162.484,236.74,163.051z"/>
      <path style="fill:#F5F5F5;" d="M269.283,163.051l-1.461,4.382l-4.619,0.035c-0.598,0.004-0.846,0.768-0.365,1.123l3.716,2.744l-1.394,4.404c-0.18,0.57,0.469,1.042,0.956,0.694l3.758-2.686l3.758,2.686c0.487,0.348,1.135-0.124,0.956-0.694l-1.394-4.404l3.716-2.744c0.481-0.355,0.233-1.119-0.365-1.123l-4.619-0.035l-1.461-4.382C270.274,162.484,269.472,162.484,269.283,163.051z"/>
      <path style="fill:#F5F5F5;" d="M171.656,132.679l-1.461,4.382l-4.619,0.035c-0.598,0.004-0.846,0.768-0.365,1.123l3.715,2.744l-1.394,4.404c-0.18,0.57,0.469,1.042,0.956,0.694l3.758-2.686l3.758,2.686c0.487,0.348,1.135-0.124,0.956-0.694l-1.394-4.404l3.715-2.744c0.481-0.355,0.233-1.119-0.365-1.123l-4.619-0.035l-1.461-4.382C172.647,132.11,171.844,132.11,171.656,132.679z"/>
      <path style="fill:#F5F5F5;" d="M204.198,132.679l-1.461,4.382l-4.619,0.035c-0.598,0.004-0.846,0.768-0.365,1.123l3.716,2.744l-1.394,4.404c-0.18,0.57,0.469,1.042,0.956,0.694l3.758-2.686l3.758,2.686c0.487,0.348,1.135-0.124,0.956-0.694l-1.394-4.404l3.715-2.744c0.481-0.355,0.233-1.119-0.365-1.123l-4.619-0.035l-1.461-4.382C205.19,132.11,204.387,132.11,204.198,132.679z"/>
      <path style="fill:#F5F5F5;" d="M236.74,132.679l-1.461,4.382l-4.619,0.035c-0.598,0.004-0.846,0.768-0.365,1.123l3.715,2.744l-1.394,4.404c-0.18,0.57,0.469,1.042,0.956,0.694l3.758-2.686l3.758,2.686c0.487,0.348,1.135-0.124,0.956-0.694l-1.394-4.404l3.715-2.744c0.481-0.355,0.233-1.119-0.365-1.123l-4.619-0.035l-1.461-4.382C237.732,132.11,236.929,132.11,236.74,132.679z"/>
      <path style="fill:#F5F5F5;" d="M269.283,132.679l-1.461,4.382l-4.619,0.035c-0.598,0.004-0.846,0.768-0.365,1.123l3.716,2.744l-1.394,4.404c-0.18,0.57,0.469,1.042,0.956,0.694l3.758-2.686l3.758,2.686c0.487,0.348,1.135-0.124,0.956-0.694l-1.394-4.404l3.716-2.744c0.481-0.355,0.233-1.119-0.365-1.123l-4.619-0.035l-1.461-4.382C270.274,132.11,269.472,132.11,269.283,132.679z"/>
      <path style="fill:#F5F5F5;" d="M204.198,163.051l-1.461,4.382l-4.619,0.035c-0.598,0.004-0.846,0.768-0.365,1.123l3.716,2.744l-1.394,4.404c-0.18,0.57,0.469,1.042,0.956,0.694l3.758-2.686l3.758,2.686c0.487,0.348,1.135-0.124,0.956-0.694l-1.394-4.404l3.715-2.744c0.481-0.355,0.233-1.119-0.365-1.123l-4.619-0.035l-1.461-4.382C205.19,162.484,204.387,162.484,204.198,163.051z"/>
      <path style="fill:#F5F5F5;" d="M204.198,102.305l-1.461,4.382l-4.619,0.035c-0.598,0.004-0.846,0.768-0.365,1.123l3.716,2.744l-1.394,4.404c-0.18,0.57,0.469,1.042,0.956,0.694l3.758-2.686l3.758,2.686c0.487,0.348,1.135-0.124,0.956-0.694l-1.394-4.404l3.715-2.744c0.481-0.355,0.233-1.119-0.365-1.123l-4.619-0.035l-1.461-4.382C205.19,101.738,204.387,101.738,204.198,102.305z"/>
      <path style="fill:#F5F5F5;" d="M236.74,163.051l-1.461,4.382l-4.619,0.035c-0.598,0.004-0.846,0.768-0.365,1.123l3.715,2.744l-1.394,4.404c-0.18,0.57,0.469,1.042,0.956,0.694l3.758-2.686l3.758,2.686c0.487,0.348,1.135-0.124,0.956-0.694l-1.394-4.404l3.715-2.744c0.481-0.355,0.233-1.119-0.365-1.123l-4.619-0.035l-1.461-4.382C237.732,162.484,236.929,162.484,236.74,163.051z"/>
      <path style="fill:#F5F5F5;" d="M269.283,163.051l-1.461,4.382l-4.619,0.035c-0.598,0.004-0.846,0.768-0.365,1.123l3.716,2.744l-1.394,4.404c-0.18,0.57,0.469,1.042,0.956,0.694l3.758-2.686l3.758,2.686c0.487,0.348,1.135-0.124,0.956-0.694l-1.394-4.404l3.716-2.744c0.481-0.355,0.233-1.119-0.365-1.123l-4.619-0.035l-1.461-4.382C270.274,162.484,269.472,162.484,269.283,163.051z"/>
      <path style="fill:#F5F5F5;" d="M236.74,102.305l-1.461,4.382l-4.619,0.035c-0.598,0.004-0.846,0.768-0.365,1.123l3.715,2.744l-1.394,4.404c-0.18,0.57,0.469,1.042,0.956,0.694l3.758-2.686l3.758,2.686c0.487,0.348,1.135-0.124,0.956-0.694l-1.394-4.404l3.715-2.744c0.481-0.355,0.233-1.119-0.365-1.123l-4.619-0.035l-1.461-4.382C237.732,101.738,236.929,101.738,236.74,102.305z"/>
      <path style="fill:#F5F5F5;" d="M269.283,102.305l-1.461,4.382l-4.619,0.035c-0.598,0.004-0.846,0.768-0.365,1.123l3.716,2.744l-1.394,4.404c-0.18,0.57,0.469,1.042,0.956,0.694l3.758-2.686l3.758,2.686c0.487,0.348,1.135-0.124,0.956-0.694l-1.394-4.404l3.716-2.744c0.481-0.355,0.233-1.119-0.365-1.123l-4.619-0.035l-1.461-4.382C270.274,101.738,269.472,101.738,269.283,102.305z"/>
    </g>
  </symbol>

  <symbol id="en-flag" viewBox="0 0 512.002 512.002">
    <g>
      <path style="fill:#41479B;" d="M503.172,423.725H8.828c-4.875,0-8.828-3.953-8.828-8.828V97.104c0-4.875,3.953-8.828,8.828-8.828h494.345c4.875,0,8.828,3.953,8.828,8.828v317.793C512,419.772,508.047,423.725,503.172,423.725z"/>
      <path style="fill:#F5F5F5;" d="M512,97.104c0-4.875-3.953-8.828-8.828-8.828h-39.495l-163.54,107.147V88.276h-88.276v107.147L48.322,88.276H8.828C3.953,88.276,0,92.229,0,97.104v22.831l140.309,91.927H0v88.276h140.309L0,392.066v22.831c0,4.875,3.953,8.828,8.828,8.828h39.495l163.54-107.147v107.147h88.276V316.578l163.54,107.147h39.495c4.875,0,8.828-3.953,8.828-8.828v-22.831l-140.309-91.927H512v-88.276H371.691L512,119.935V97.104z"/>
      <polygon style="fill:#FF4B55;" points="512,229.518 282.483,229.518 282.483,88.276 229.517,88.276 229.517,229.518 0,229.518 0,282.483 229.517,282.483 229.517,423.725 282.483,423.725 282.483,282.483 512,282.483 	"/>
      <path style="fill:#FF4B55;" d="M178.948,300.138L0.25,416.135c0.625,4.263,4.14,7.59,8.577,7.59h12.159l190.39-123.586h-32.428V300.138z"/>
      <path style="fill:#FF4B55;" d="M346.388,300.138H313.96l190.113,123.404c4.431-0.472,7.928-4.09,7.928-8.646v-7.258L346.388,300.138z"/>
      <path style="fill:#FF4B55;" d="M0,106.849l161.779,105.014h32.428L5.143,89.137C2.123,90.54,0,93.555,0,97.104V106.849z"/>
      <path style="fill:#FF4B55;" d="M332.566,211.863L511.693,95.586c-0.744-4.122-4.184-7.309-8.521-7.309h-12.647L300.138,211.863H332.566z"/>
    </g>
  </symbol>

  <symbol id="arrow" viewBox="0 0 492.004 492.004">
    <g>
      <path d="M382.678,226.804L163.73,7.86C158.666,2.792,151.906,0,144.698,0s-13.968,2.792-19.032,7.86l-16.124,16.12c-10.492,10.504-10.492,27.576,0,38.064L293.398,245.9l-184.06,184.06c-5.064,5.068-7.86,11.824-7.86,19.028c0,7.212,2.796,13.968,7.86,19.04l16.124,16.116c5.068,5.068,11.824,7.86,19.032,7.86s13.968-2.792,19.032-7.86L382.678,265c5.076-5.084,7.864-11.872,7.848-19.088C390.542,238.668,387.754,231.884,382.678,226.804z"/>
    </g>
  </symbol>

  <symbol id="small-phone" viewBox="0 0 13 14">
    <g>
      <path d="M9.99002 13.5313C7.34155 13.5277 4.80255 12.4288 2.9298 10.4757C1.05705 8.5225 0.00343288 5.87446 0 3.11226C0 2.28686 0.314388 1.49526 0.874003 0.911614C1.43362 0.327967 2.19262 7.73274e-05 2.98403 7.73274e-05C3.15162 -0.00125401 3.31892 0.0146087 3.48353 0.0474365C3.64267 0.071996 3.7991 0.112785 3.9506 0.169218C4.05715 0.208207 4.15209 0.275528 4.22604 0.364522C4.3 0.453516 4.35039 0.561101 4.37225 0.676638L5.26098 4.736C5.28493 4.84619 5.28205 4.96088 5.25259 5.0696C5.22312 5.17833 5.16802 5.27763 5.09231 5.35844C5.00798 5.45316 5.0015 5.45992 4.20359 5.89292C4.84256 7.35487 5.96365 8.52891 7.36277 9.2013C7.78443 8.36237 7.79092 8.3556 7.88173 8.26765C7.95922 8.18869 8.05443 8.13122 8.15868 8.1005C8.26293 8.06977 8.37289 8.06676 8.47854 8.09174L12.3708 9.01863C12.478 9.04458 12.5771 9.09856 12.6588 9.1755C12.7405 9.25243 12.8021 9.34979 12.8378 9.4584C12.8926 9.61898 12.9338 9.78424 12.9611 9.95229C12.9872 10.1223 13.0002 10.2943 13 10.4665C12.988 11.2883 12.6648 12.0719 12.1009 12.6461C11.5369 13.2203 10.7781 13.5385 9.99002 13.5313Z" fill="white"/>
    </g>
  </symbol>

  <symbol id="plus" viewBox="0 0 448 448">
    <g>
      <path d="m408 184h-136c-4.417969 0-8-3.582031-8-8v-136c0-22.089844-17.910156-40-40-40s-40 17.910156-40 40v136c0 4.417969-3.582031 8-8 8h-136c-22.089844 0-40 17.910156-40 40s17.910156 40 40 40h136c4.417969 0 8 3.582031 8 8v136c0 22.089844 17.910156 40 40 40s40-17.910156 40-40v-136c0-4.417969 3.582031-8 8-8h136c22.089844 0 40-17.910156 40-40s-17.910156-40-40-40zm0 0"/>
    </g>
  </symbol>

  <symbol id="mail" viewBox="0 0 17 16">
    <g>
      <path d="M1 13.4088V6.30385C0.999961 6.04195 1.06457 5.78408 1.18809 5.55313C1.31162 5.32218 1.49024 5.1253 1.7081 4.97994L7.27746 1.26757C7.53895 1.0931 7.84625 1 8.1606 1C8.47494 1 8.78225 1.0931 9.04374 1.26757L14.6131 4.97994C14.831 5.1253 15.0096 5.32218 15.1331 5.55313C15.2566 5.78408 15.3212 6.04195 15.3212 6.30385V13.4088M1 13.4088H15.3212M1 13.4088C1 13.8308 1.16765 14.2355 1.46606 14.5339C1.76448 14.8324 2.16922 15 2.59124 15H13.7299C14.152 15 14.5567 14.8324 14.8551 14.5339C15.1535 14.2355 15.3212 13.8308 15.3212 13.4088M1 13.4088L6.37045 9.82846M15.3212 13.4088L9.95075 9.82846M6.37045 9.82846L1 6.24816M6.37045 9.82846L7.27746 10.4331C7.53895 10.6076 7.84625 10.7007 8.1606 10.7007C8.47494 10.7007 8.78225 10.6076 9.04374 10.4331L9.95075 9.82846M9.95075 9.82846L15.3212 6.24816" stroke="white" stroke-width="2" stroke-linecap="round" stroke-linejoin="round"/>
    </g>
  </symbol>

  <symbol id="big-phone" viewBox="0 0 513.64 513.64">
    <g>
      <path d="M499.66,376.96l-71.68-71.68c-25.6-25.6-69.12-15.359-79.36,17.92c-7.68,23.041-33.28,35.841-56.32,30.72c-51.2-12.8-120.32-79.36-133.12-133.12c-7.68-23.041,7.68-48.641,30.72-56.32c33.28-10.24,43.52-53.76,17.92-79.36l-71.68-71.68c-20.48-17.92-51.2-17.92-69.12,0l-48.64,48.64c-48.64,51.2,5.12,186.88,125.44,307.2c120.32,120.32,256,176.641,307.2,125.44l48.64-48.64C517.581,425.6,517.581,394.88,499.66,376.96z"/>
    </g>
  </symbol>

  <symbol id="zoom" viewBox="-1 0 136 136.21852">
    <g>
      <path d="M 93.148438 80.832031 C 109.5 57.742188 104.03125 25.769531 80.941406 9.421875 C 57.851562 -6.925781 25.878906 -1.460938 9.53125 21.632812 C -6.816406 44.722656 -1.351562 76.691406 21.742188 93.039062 C 38.222656 104.707031 60.011719 105.605469 77.394531 95.339844 L 115.164062 132.882812 C 119.242188 137.175781 126.027344 137.347656 130.320312 133.269531 C 134.613281 129.195312 134.785156 122.410156 130.710938 118.117188 C 130.582031 117.980469 130.457031 117.855469 130.320312 117.726562 Z M 51.308594 84.332031 C 33.0625 84.335938 18.269531 69.554688 18.257812 51.308594 C 18.253906 33.0625 33.035156 18.269531 51.285156 18.261719 C 69.507812 18.253906 84.292969 33.011719 84.328125 51.234375 C 84.359375 69.484375 69.585938 84.300781 51.332031 84.332031 C 51.324219 84.332031 51.320312 84.332031 51.308594 84.332031 Z M 51.308594 84.332031 " style=" stroke:none;fill-rule:nonzero;fill:#fff;fill-opacity:1;" />
    </g>
  </symbol>

  <symbol id="facebook" viewBox="0 0 24 24">
    <g>
      <path d="m15.997 3.985h2.191v-3.816c-.378-.052-1.678-.169-3.192-.169-3.159 0-5.323 1.987-5.323 5.639v3.361h-3.486v4.266h3.486v10.734h4.274v-10.733h3.345l.531-4.266h-3.877v-2.939c.001-1.233.333-2.077 2.051-2.077z"/>
    </g>
  </symbol>

   <symbol id="instagram" viewBox="0 0 511 511.9">
    <g>
      <path d="m510.949219 150.5c-1.199219-27.199219-5.597657-45.898438-11.898438-62.101562-6.5-17.199219-16.5-32.597657-29.601562-45.398438-12.800781-13-28.300781-23.101562-45.300781-29.5-16.296876-6.300781-34.898438-10.699219-62.097657-11.898438-27.402343-1.300781-36.101562-1.601562-105.601562-1.601562s-78.199219.300781-105.5 1.5c-27.199219 1.199219-45.898438 5.601562-62.097657 11.898438-17.203124 6.5-32.601562 16.5-45.402343 29.601562-13 12.800781-23.097657 28.300781-29.5 45.300781-6.300781 16.300781-10.699219 34.898438-11.898438 62.097657-1.300781 27.402343-1.601562 36.101562-1.601562 105.601562s.300781 78.199219 1.5 105.5c1.199219 27.199219 5.601562 45.898438 11.902343 62.101562 6.5 17.199219 16.597657 32.597657 29.597657 45.398438 12.800781 13 28.300781 23.101562 45.300781 29.5 16.300781 6.300781 34.898438 10.699219 62.101562 11.898438 27.296876 1.203124 36 1.5 105.5 1.5s78.199219-.296876 105.5-1.5c27.199219-1.199219 45.898438-5.597657 62.097657-11.898438 34.402343-13.300781 61.601562-40.5 74.902343-74.898438 6.296876-16.300781 10.699219-34.902343 11.898438-62.101562 1.199219-27.300781 1.5-36 1.5-105.5s-.101562-78.199219-1.300781-105.5zm-46.097657 209c-1.101562 25-5.300781 38.5-8.800781 47.5-8.601562 22.300781-26.300781 40-48.601562 48.601562-9 3.5-22.597657 7.699219-47.5 8.796876-27 1.203124-35.097657 1.5-103.398438 1.5s-76.5-.296876-103.402343-1.5c-25-1.097657-38.5-5.296876-47.5-8.796876-11.097657-4.101562-21.199219-10.601562-29.398438-19.101562-8.5-8.300781-15-18.300781-19.101562-29.398438-3.5-9-7.699219-22.601562-8.796876-47.5-1.203124-27-1.5-35.101562-1.5-103.402343s.296876-76.5 1.5-103.398438c1.097657-25 5.296876-38.5 8.796876-47.5 4.101562-11.101562 10.601562-21.199219 19.203124-29.402343 8.296876-8.5 18.296876-15 29.398438-19.097657 9-3.5 22.601562-7.699219 47.5-8.800781 27-1.199219 35.101562-1.5 103.398438-1.5 68.402343 0 76.5.300781 103.402343 1.5 25 1.101562 38.5 5.300781 47.5 8.800781 11.097657 4.097657 21.199219 10.597657 29.398438 19.097657 8.5 8.300781 15 18.300781 19.101562 29.402343 3.5 9 7.699219 22.597657 8.800781 47.5 1.199219 27 1.5 35.097657 1.5 103.398438s-.300781 76.300781-1.5 103.300781zm0 0"/>
      <path d="m256.449219 124.5c-72.597657 0-131.5 58.898438-131.5 131.5s58.902343 131.5 131.5 131.5c72.601562 0 131.5-58.898438 131.5-131.5s-58.898438-131.5-131.5-131.5zm0 216.800781c-47.097657 0-85.300781-38.199219-85.300781-85.300781s38.203124-85.300781 85.300781-85.300781c47.101562 0 85.300781 38.199219 85.300781 85.300781s-38.199219 85.300781-85.300781 85.300781zm0 0"/>
      <path d="m423.851562 119.300781c0 16.953125-13.746093 30.699219-30.703124 30.699219-16.953126 0-30.699219-13.746094-30.699219-30.699219 0-16.957031 13.746093-30.699219 30.699219-30.699219 16.957031 0 30.703124 13.742188 30.703124 30.699219zm0 0"/>
    </g>
  </symbol>

  <symbol id="vk" viewBox="0 0 24 24">
    <g>
      <path d="m19.915 13.028c-.388-.49-.277-.708 0-1.146.005-.005 3.208-4.431 3.538-5.932l.002-.001c.164-.547 0-.949-.793-.949h-2.624c-.668 0-.976.345-1.141.731 0 0-1.336 3.198-3.226 5.271-.61.599-.892.791-1.225.791-.164 0-.419-.192-.419-.739v-5.105c0-.656-.187-.949-.74-.949h-4.126c-.419 0-.668.306-.668.591 0 .622.945.765 1.043 2.515v3.797c0 .832-.151.985-.486.985-.892 0-3.057-3.211-4.34-6.886-.259-.713-.512-1.001-1.185-1.001h-2.625c-.749 0-.9.345-.9.731 0 .682.892 4.073 4.148 8.553 2.17 3.058 5.226 4.715 8.006 4.715 1.671 0 1.875-.368 1.875-1.001 0-2.922-.151-3.198.686-3.198.388 0 1.056.192 2.616 1.667 1.783 1.749 2.076 2.532 3.074 2.532h2.624c.748 0 1.127-.368.909-1.094-.499-1.527-3.871-4.668-4.023-4.878z"/>
    </g>
  </symbol>

  <symbol id="telegram" viewBox="0 0 24 24">
    <g>
      <path d="m12 24c6.629 0 12-5.371 12-12s-5.371-12-12-12-12 5.371-12 12 5.371 12 12 12zm-6.509-12.26 11.57-4.461c.537-.194 1.006.131.832.943l.001-.001-1.97 9.281c-.146.658-.537.818-1.084.508l-3-2.211-1.447 1.394c-.16.16-.295.295-.605.295l.213-3.053 5.56-5.023c.242-.213-.054-.333-.373-.121l-6.871 4.326-2.962-.924c-.643-.204-.657-.643.136-.953z"/>
    </g>
  </symbol>

  <symbol id="popup-user" viewBox="0 0 25 25">
    <g>
      <path d="M12.5 12.5C15.9531 12.5 18.75 9.70312 18.75 6.25C18.75 2.79688 15.9531 0 12.5 0C9.04688 0 6.25 2.79688 6.25 6.25C6.25 9.70312 9.04688 12.5 12.5 12.5ZM12.5 3.125C14.2188 3.125 15.625 4.53125 15.625 6.25C15.625 7.96875 14.2188 9.375 12.5 9.375C10.7812 9.375 9.375 7.96875 9.375 6.25C9.375 4.53125 10.7812 3.125 12.5 3.125ZM12.5 14.0625C8.32812 14.0625 0 16.1562 0 20.3125V25H25V20.3125C25 16.1562 16.6719 14.0625 12.5 14.0625ZM21.875 21.875H3.125V20.3281C3.4375 19.2031 8.28125 17.1875 12.5 17.1875C16.7188 17.1875 21.5625 19.2031 21.875 20.3125V21.875Z" fill="#BDBDBD"/> 
    </g>
  </symbol>

  <symbol id="popup-phone" viewBox="0 0 20 21">
    <g>
      <path d="M15.3693 20.9998C11.2947 20.9943 7.38854 19.2889 4.50738 16.2577C1.62623 13.2264 0.00528135 9.11683 0 4.83005C0 3.54907 0.483674 2.32056 1.34462 1.41477C2.20556 0.508986 3.37326 0.000120008 4.59082 0.000120008C4.84864 -0.00194615 5.10604 0.0226719 5.35928 0.0736189C5.6041 0.111734 5.84478 0.175036 6.07784 0.262616C6.24176 0.323126 6.38783 0.427604 6.5016 0.565718C6.61538 0.703831 6.69291 0.870797 6.72655 1.0501L8.09381 7.35001C8.13066 7.52102 8.12623 7.69901 8.0809 7.86774C8.03557 8.03648 7.95081 8.19058 7.83433 8.316C7.70459 8.463 7.69461 8.4735 6.46706 9.14549C7.45009 11.4144 9.17485 13.2364 11.3273 14.2799C11.976 12.9779 11.986 12.9674 12.1257 12.8309C12.245 12.7084 12.3914 12.6192 12.5518 12.5715C12.7122 12.5238 12.8814 12.5192 13.0439 12.5579L19.0319 13.9964C19.1969 14.0367 19.3494 14.1205 19.4751 14.2399C19.6008 14.3593 19.6956 14.5103 19.7505 14.6789C19.8347 14.9281 19.8982 15.1846 19.9401 15.4454C19.9803 15.7093 20.0003 15.9761 20 16.2434C19.9816 17.5189 19.4843 18.7349 18.6167 19.6261C17.7491 20.5172 16.5817 21.0111 15.3693 20.9998Z" fill="#BDBDBD"/>
    </g>
  </symbol>

  <symbol id="youtube" viewBox="-21 -117 682.66672 682">
    <g>
      <path d="m626.8125 64.035156c-7.375-27.417968-28.992188-49.03125-56.40625-56.414062-50.082031-13.703125-250.414062-13.703125-250.414062-13.703125s-200.324219 0-250.40625 13.183593c-26.886719 7.375-49.03125 29.519532-56.40625 56.933594-13.179688 50.078125-13.179688 153.933594-13.179688 153.933594s0 104.378906 13.179688 153.933594c7.382812 27.414062 28.992187 49.027344 56.410156 56.410156 50.605468 13.707031 250.410156 13.707031 250.410156 13.707031s200.324219 0 250.40625-13.183593c27.417969-7.378907 49.03125-28.992188 56.414062-56.40625 13.175782-50.082032 13.175782-153.933594 13.175782-153.933594s.527344-104.382813-13.183594-154.460938zm-370.601562 249.878906v-191.890624l166.585937 95.945312zm0 0"/>
    </g>
  </symbol>

  <symbol id="popup-message" viewBox="0 0 512 512">
    <g>
      <path d="M467,61H45c-6.927,0-13.412,1.703-19.279,4.51L255,294.789l51.389-49.387c0,0,0.004-0.005,0.005-0.007c0.001-0.002,0.005-0.004,0.005-0.004L486.286,65.514C480.418,62.705,473.929,61,467,61z"/>
      <path d="M507.496,86.728L338.213,256.002L507.49,425.279c2.807-5.867,4.51-12.352,4.51-19.279V106C512,99.077,510.301,92.593,507.496,86.728z"/>
      <path d="M4.51,86.721C1.703,92.588,0,99.073,0,106v300c0,6.923,1.701,13.409,4.506,19.274L173.789,256L4.51,86.721z"/>
      <path d="M317.002,277.213l-51.396,49.393c-2.93,2.93-6.768,4.395-10.605,4.395s-7.676-1.465-10.605-4.395L195,277.211L25.714,446.486C31.582,449.295,38.071,451,45,451h422c6.927,0,13.412-1.703,19.279-4.51L317.002,277.213z"/>
    </g>
  </symbol>

  <symbol id="like" viewBox="0 0 512 512">
    <g>
      <path d="M512,304c0-12.821-5.099-24.768-13.888-33.579c9.963-10.901,15.04-25.515,13.653-40.725c-2.496-27.115-26.923-48.363-55.637-48.363H324.352c6.528-19.819,16.981-56.149,16.981-85.333c0-46.272-39.317-85.333-64-85.333c-22.144,0-37.995,12.48-38.656,12.992c-2.539,2.027-4.011,5.099-4.011,8.341v72.341L173.205,237.44l-2.539,1.301v-4.075c0-5.888-4.779-10.667-10.667-10.667H53.333C23.915,224,0,247.915,0,277.333V448c0,29.419,23.915,53.333,53.333,53.333h64c23.061,0,42.773-14.72,50.197-35.264C185.28,475.2,209.173,480,224,480h195.819c23.232,0,43.563-15.659,48.341-37.248c2.453-11.136,1.024-22.336-3.84-32.064c15.744-7.915,26.347-24.192,26.347-42.688c0-7.552-1.728-14.784-4.992-21.312C501.419,338.752,512,322.496,512,304z M467.008,330.325c-4.117,0.491-7.595,3.285-8.917,7.232c-1.301,3.947-0.213,8.277,2.816,11.136c5.419,5.099,8.427,11.968,8.427,19.307c0,13.461-10.176,24.768-23.637,26.325c-4.117,0.491-7.595,3.285-8.917,7.232c-1.301,3.947-0.213,8.277,2.816,11.136c7.019,6.613,9.835,15.893,7.723,25.451c-2.624,11.904-14.187,20.523-27.499,20.523H224c-17.323,0-46.379-8.128-56.448-18.219c-3.051-3.029-7.659-3.925-11.627-2.304c-3.989,1.643-6.592,5.547-6.592,9.856c0,17.643-14.357,32-32,32h-64c-17.643,0-32-14.357-32-32V277.333c0-17.643,14.357-32,32-32h96V256c0,3.691,1.92,7.125,5.077,9.088c3.115,1.877,7.04,2.069,10.368,0.448l21.333-10.667c2.155-1.067,3.883-2.859,4.907-5.056l64-138.667c0.64-1.408,0.981-2.944,0.981-4.48V37.781C260.437,35.328,268.139,32,277.333,32C289.024,32,320,61.056,320,96c0,37.547-20.437,91.669-20.629,92.203c-1.237,3.264-0.811,6.955,1.173,9.856c2.005,2.88,5.291,4.608,8.789,4.608h146.795c17.792,0,32.896,12.736,34.389,28.992c1.131,12.16-4.715,23.723-15.189,30.187c-3.264,2.005-5.205,5.632-5.056,9.493s2.368,7.317,5.781,9.088c9.024,4.587,14.613,13.632,14.613,23.573C490.667,317.461,480.491,328.768,467.008,330.325z"/>
      <path d="M160,245.333c-5.888,0-10.667,4.779-10.667,10.667v192c0,5.888,4.779,10.667,10.667,10.667s10.667-4.779,10.667-10.667V256C170.667,250.112,165.888,245.333,160,245.333z"/>
    </g>
  </symbol>

  <symbol id="mail-lock" viewBox="0 0 512 512">
    <g>
      <path d="M490.667,298.667V288c0-41.167-33.5-74.667-74.667-74.667c-3.652,0-7.152,0.569-10.667,1.078V106.667c0-23.531-19.135-42.667-42.667-42.667h-320C19.135,64,0,83.135,0,106.667V320c0,23.531,19.135,42.667,42.667,42.667H320v64c0,11.76,9.573,21.333,21.333,21.333h149.333c11.76,0,21.333-9.573,21.333-21.333V320C512,308.24,502.427,298.667,490.667,298.667z M416,234.667c29.406,0,53.333,23.927,53.333,53.333v10.667H362.667V288C362.667,258.594,386.594,234.667,416,234.667z M42.667,85.333h320c0.444,0,0.816,0.227,1.254,0.254L211.438,210.75c-5.438,3.417-13.271,2.708-16.823,0.542L41.426,85.585C41.859,85.559,42.227,85.333,42.667,85.333z M320,320v21.333H42.667c-11.76,0-21.333-9.573-21.333-21.333V106.667c0-3.021,0.667-5.874,1.805-8.48l158.883,130.293c6.208,4.052,13.344,6.188,20.646,6.188c7.021,0,13.885-1.979,19.927-5.729c0.604-0.323,1.177-0.708,1.719-1.156l157.88-129.598c1.139,2.608,1.807,5.461,1.807,8.483v114.156c-25.134,12.033-42.667,37.505-42.667,67.177v10.667C329.573,298.667,320,308.24,320,320z M490.667,426.667H341.333V320c0,0-0.01,0-0.021,0l0.021-10.667V320h149.333V426.667z"/>
      <path d="M405.333,380.72v13.947c0,5.896,4.771,10.667,10.667,10.667c5.896,0,10.667-4.771,10.667-10.667V380.72c6.258-3.724,10.667-10.262,10.667-18.053c0-11.76-9.573-21.333-21.333-21.333c-11.76,0-21.333,9.573-21.333,21.333C394.667,370.458,399.076,376.996,405.333,380.72z"/>
    </g>
  </symbol>

  <symbol id="hands-heart" viewBox="-23 0 447 447.81616">
    <g>
      <path d="m210.640625 191.816406h.214844c6.886719-.0625 13.414062-3.082031 17.921875-8.289062l80.734375-93.191406c13.984375-16.15625 17.261719-38.984376 8.382812-58.421876-8.878906-19.4375-28.277343-31.9062495-49.644531-31.914062h-3.042969c-16.589843-.0390625-32.289062 7.507812-42.621093 20.488281l-11.730469 14.710938-11.765625-14.710938c-10.335938-12.980469-26.035156-20.5273435-42.625-20.488281h-4.527344c-15.707031.00390625-30.648438 6.765625-41.015625 18.558594l-.929687 1.066406c-18.25 20.785156-18.078126 51.933594.398437 72.519531l82.402344 91.710938c4.550781 5.066406 11.039062 7.960937 17.847656 7.960937zm-88.34375-110.359375c-13.050781-14.546875-13.175781-36.550781-.289063-51.242187l.921876-1.0625c7.332031-8.332032 17.890624-13.109375 28.992187-13.113282h4.527344c11.730469-.027343 22.828125 5.308594 30.136719 14.488282l18.007812 22.511718c1.570312 1.8125 3.847656 2.851563 6.246094 2.851563 2.398437 0 4.675781-1.039063 6.25-2.851563l18.007812-22.511718c7.289063-9.1875 18.382813-14.539063 30.109375-14.527344h3c15.109375 0 28.828125 8.816406 35.105469 22.558594 6.277344 13.746094 3.957031 29.886718-5.9375 41.304687l-80.6875 93.183594c-1.496094 1.746094-3.675781 2.757813-5.976562 2.769531-2.292969.023438-4.488282-.941406-6.023438-2.648437zm0 0"/><path d="m352.40625 119.816406c-17.671875 0-32 14.328125-32 32v4.449219c-4.839844-2.882813-10.363281-4.417969-16-4.449219-17.671875 0-32 14.328125-32 32v60.558594c-.292969.152344-.578125.324219-.855469.511719-.480469.21875-.9375.488281-1.367187.800781-.039063 0-.085938.039062-.128906.074219l-45.726563 41.023437c-6.535156 5.898438-11.933594 12.949219-15.921875 20.800782-3.984375-7.851563-9.382812-14.902344-15.917969-20.800782l-45.726562-41.015625s-.089844-.042969-.128907-.074219c-.441406-.3125-.910156-.578124-1.402343-.800781-.253907-.175781-.523438-.335937-.796875-.476562v-60.601563c0-17.671875-14.328125-32-32-32-5.636719.03125-11.160156 1.566406-16 4.449219v-4.449219c0-17.671875-14.328125-32-32-32-17.675782 0-32 14.328125-32 32v118.679688c0 7.609375 2.167968 15.0625 6.253906 21.480468l49.71875 78.167969v69.671875c0 4.417969 3.582031 8 8 8h224c4.421875 0 8-3.582031 8-8v-69.671875l49.746094-78.167969c4.085937-6.417968 6.257812-13.871093 6.253906-21.480468v-118.679688c0-17.671875-14.324219-32-32-32zm-256 64c0-8.835937 7.164062-16 16-16 8.839844 0 16 7.164063 16 16v59.671875c-9.273438 1.9375-17.101562 8.109375-21.140625 16.679688l-10.859375-14.953125zm104 160v88h-96v-64c.003906-1.523437-.429688-3.011718-1.246094-4.296875l-51-80.144531c-2.453125-3.847656-3.757812-8.316406-3.753906-12.878906v-118.679688c0-8.835937 7.164062-16 16-16 8.839844 0 16 7.164063 16 16v96c.015625.96875.210938 1.925782.570312 2.824219.128907.273437.273438.542969.429688.800781.152344.359375.328125.707032.53125 1.039063l26.398438 36.304687.0625.054688c.742187 1.339844 1.585937 2.621094 2.523437 3.832031l19.277344 24.105469c.730469.890625 1.648437 1.617187 2.6875 2.117187.320312.125.644531.226563.976562.304688.707031.269531 1.449219.433593 2.199219.488281.128906 0 .257812.089844.386719.089844.476562-.039063.949219-.117188 1.414062-.234375.316407-.03125.628907-.085938.9375-.160157.960938-.28125 1.859375-.742187 2.648438-1.359374 3.449219-2.761719 4.007812-7.796876 1.246093-11.246094l-19.277343-24.097656c-2.703125-3.347657-3.796875-7.707032-3.003907-11.933594.796876-4.226563 3.40625-7.890625 7.136719-10.027344.304688-.175781.632813-.269531.945313-.421875.804687-.414063 1.644531-.753906 2.511718-1.007813.433594-.121093.871094-.160156 1.3125-.242187.777344-.148437 1.566407-.238281 2.359376-.261719.503906 0 1.007812.046875 1.511718.085938.539063.058594 1.070313.144531 1.601563.257812l44.054687 39.519532c11.824219 10.648437 18.570313 25.816406 18.558594 41.726562zm88-104v-56c0-8.835937 7.164062-16 16-16 8.839844 0 16 7.164063 16 16v61.398438l-10.855469 14.945312c-4.035156-8.570312-11.867187-14.742187-21.144531-16.664062zm80 30.679688c.007812 4.5625-1.296875 9.03125-3.75 12.878906l-51 80.144531c-.816406 1.285157-1.25 2.773438-1.25 4.296875v64h-96v-91.441406c.015625-15.902344 6.773438-31.054688 18.601562-41.6875l44.0625-39.519531c.503907-.109375 1.015626-.191407 1.53125-.238281.546876-.0625 1.097657-.097657 1.648438-.105469.695312.03125 1.390625.113281 2.078125.238281.539063.066406 1.074219.164062 1.601563.289062.765624.238282 1.511718.539063 2.230468.898438.398438.183594.800782.308594 1.191406.527344 1.101563.636718 2.117188 1.410156 3.023438 2.304687 5.316406 5.304688 5.789062 13.765625 1.089844 19.628907l-19.289063 24.105468c-2.761719 3.449219-2.203125 8.488282 1.25 11.246094.785157.621094 1.679688 1.082031 2.636719 1.363281.316406.070313.632812.125.953125.160157.457031.113281.921875.191406 1.390625.230468.128906 0 .25-.082031.386719-.089844.746093-.050781 1.484375-.214843 2.183593-.488281.339844-.074219.675782-.175781 1-.300781 1.035157-.507812 1.949219-1.230469 2.679688-2.121094l19.289062-24.113281c.929688-1.207031 1.769532-2.484375 2.511719-3.816406l.0625-.0625 26.359375-36.304688c.203125-.332031.378906-.679687.527344-1.039062.160156-.257813.304688-.523438.433594-.800781.363281-.910157.558594-1.882813.566406-2.863282v-96c0-8.835937 7.164062-16 16-16 8.839844 0 16 7.164063 16 16zm0 0"/>
      <path d="m352.40625 39.816406h16v16h-16zm0 0"/>
      <path d="m384.40625 39.816406h16v16h-16zm0 0"/>
      <path d="m368.40625 23.816406h16v16h-16zm0 0"/>
      <path d="m368.40625 55.816406h16v16h-16zm0 0"/>
      <path d="m.40625 63.816406h16v16h-16zm0 0"/>
      <path d="m48.40625 63.816406h16v16h-16zm0 0"/>
      <path d="m24.40625 39.816406h16v16h-16zm0 0"/>
      <path d="m24.40625 87.816406h16v16h-16zm0 0"/>
    </g>
  </symbol>

   <symbol id="coin" viewBox="0 0 401.601 401.6">
    <g>
      <path d="M116.682,229.329c11.286,0,22.195-0.729,32.518-2.086V114.094c-10.322-1.356-21.232-2.085-32.518-2.085c-64.441,0-116.681,23.693-116.681,52.921v11.477C0.001,205.634,52.241,229.329,116.682,229.329z"/>
      <path d="M116.682,288.411c11.286,0,22.195-0.729,32.518-2.084v-33.166c-10.325,1.356-21.229,2.095-32.518,2.095c-56.25,0-103.199-18.054-114.227-42.082c-1.606,3.5-2.454,7.124-2.454,10.839v11.477C0.001,264.718,52.241,288.411,116.682,288.411z"/>
      <path d="M149.199,314.823v-2.578c-10.325,1.356-21.229,2.095-32.518,2.095c-56.25,0-103.199-18.054-114.227-42.082C0.848,275.757,0,279.381,0,283.096v11.477c0,29.229,52.24,52.922,116.681,52.922c12.887,0,25.282-0.95,36.873-2.7c-2.873-5.877-4.355-12.075-4.355-18.496V314.823z"/>
      <path d="M284.92,22.379c-64.441,0-116.681,23.693-116.681,52.921v11.477c0,29.228,52.24,52.921,116.681,52.921c64.44,0,116.681-23.693,116.681-52.921V75.3C401.601,46.072,349.36,22.379,284.92,22.379z"/>
      <path d="M284.92,165.626c-56.25,0-103.199-18.053-114.227-42.082c-1.606,3.499-2.454,7.123-2.454,10.839v11.477c0,29.228,52.24,52.921,116.681,52.921c64.44,0,116.681-23.693,116.681-52.921v-11.477c0-3.716-0.848-7.34-2.454-10.839C388.119,147.573,341.17,165.626,284.92,165.626z"/>
      <path d="M284.92,224.71c-56.25,0-103.199-18.054-114.227-42.082c-1.606,3.499-2.454,7.123-2.454,10.839v11.477c0,29.229,52.24,52.922,116.681,52.922c64.44,0,116.681-23.693,116.681-52.922v-11.477c0-3.716-0.848-7.34-2.454-10.839C388.119,206.657,341.17,224.71,284.92,224.71z"/>
      <path d="M284.92,286.983c-56.25,0-103.199-18.054-114.227-42.082c-1.606,3.5-2.454,7.123-2.454,10.838v11.478c0,29.228,52.24,52.921,116.681,52.921c64.44,0,116.681-23.693,116.681-52.921v-11.478c0-3.715-0.848-7.34-2.454-10.838C388.119,268.928,341.17,286.983,284.92,286.983z"/>
      <path d="M284.92,346.066c-56.25,0-103.199-18.053-114.227-42.081c-1.606,3.5-2.454,7.125-2.454,10.838V326.3c0,29.228,52.24,52.921,116.681,52.921c64.44,0,116.681-23.693,116.681-52.921v-11.478c0-3.715-0.848-7.34-2.454-10.838C388.119,328.012,341.17,346.066,284.92,346.066z"/>
    </g>
  </symbol>

  <symbol id="clock" viewBox="0 0 384 384">
    <g>
      <path d="m343.59375 101.039062c-7.953125 3.847657-11.28125 13.417969-7.433594 21.367188 10.511719 21.714844 15.839844 45.121094 15.839844 69.59375 0 88.222656-71.777344 160-160 160s-160-71.777344-160-160 71.777344-160 160-160c36.558594 0 70.902344 11.9375 99.328125 34.519531 6.894531 5.503907 16.976563 4.351563 22.480469-2.566406 5.503906-6.914063 4.351562-16.984375-2.570313-22.480469-33.652343-26.746094-76-41.472656-119.238281-41.472656-105.863281 0-192 86.136719-192 192s86.136719 192 192 192 192-86.136719 192-192c0-29.335938-6.40625-57.449219-19.039062-83.527344-3.839844-7.96875-13.441407-11.289062-21.367188-7.433594zm0 0"/>
      <path d="m192 64c-8.832031 0-16 7.167969-16 16v112c0 8.832031 7.167969 16 16 16h80c8.832031 0 16-7.167969 16-16s-7.167969-16-16-16h-64v-96c0-8.832031-7.167969-16-16-16zm0 0"/>
    </g>
  </symbol>

  <symbol id="heart-hand-2" viewBox="-7 0 415 415.81602">
    <g>
      <path d="m122.296875 65.457031c-13.050781-14.546875-13.175781-36.550781-.289063-51.242187l.921876-1.0625c7.332031-8.332032 17.890624-13.1093752 28.992187-13.1132815h4.527344c11.730469-.0273437 22.828125 5.3085935 30.136719 14.4882815l18.007812 22.511718c1.570312 1.8125 3.847656 2.851563 6.246094 2.851563 2.398437 0 4.675781-1.039063 6.25-2.851563l18.007812-22.511718c7.289063-9.1875 18.382813-14.5390628 30.109375-14.527344h3c15.109375 0 28.828125 8.816406 35.105469 22.558594 6.277344 13.746094 3.957031 29.886718-5.9375 41.304687l-80.6875 93.183594c-1.496094 1.746094-3.675781 2.757813-5.976562 2.769531-2.292969.023438-4.488282-.941406-6.023438-2.648437zm0 0"/>
      <path d="m96.40625 167.816406c0-8.835937 7.164062-16 16-16 8.839844 0 16 7.164063 16 16v59.671875c-9.273438 1.933594-17.101562 8.109375-21.140625 16.679688l-10.859375-14.953125zm104 160v88h-96v-64c.003906-1.523437-.429688-3.011718-1.246094-4.296875l-51-80.144531c-2.453125-3.847656-3.757812-8.316406-3.753906-12.878906v-118.679688c0-8.835937 7.164062-16 16-16 8.839844 0 16 7.164063 16 16v96c.015625.96875.210938 1.925782.570312 2.824219.128907.273437.273438.542969.429688.800781.152344.359375.328125.707032.53125 1.039063l26.398438 36.304687.0625.054688c.742187 1.339844 1.585937 2.621094 2.523437 3.832031l19.277344 24.105469c.730469.890625 1.648437 1.617187 2.6875 2.117187.320312.125.644531.226563.976562.304688.707031.269531 1.449219.433593 2.199219.488281.128906 0 .257812.089844.386719.089844.476562-.039063.949219-.117188 1.414062-.234375.316407-.03125.628907-.085938.9375-.160157.960938-.28125 1.859375-.742187 2.648438-1.359374 3.449219-2.761719 4.007812-7.796876 1.246093-11.246094l-19.28125-24.097656c-2.699218-3.347657-3.796874-7.707032-3-11.933594.796876-4.226563 3.40625-7.890625 7.136719-10.027344.304688-.175781.632813-.269531.945313-.421875.804687-.414063 1.644531-.753906 2.511718-1.007813.433594-.121093.871094-.160156 1.3125-.242187.777344-.148437 1.566407-.238281 2.359376-.261719.503906 0 1.007812.046875 1.511718.085938.539063.058594 1.070313.144531 1.601563.257812l44.054687 39.519532c11.824219 10.648437 18.570313 25.816406 18.558594 41.726562zm88-104v-56c0-8.835937 7.164062-16 16-16 8.839844 0 16 7.164063 16 16v61.398438l-10.855469 14.945312c-4.035156-8.570312-11.867187-14.742187-21.144531-16.664062zm80 30.679688c.007812 4.5625-1.296875 9.03125-3.75 12.878906l-51 80.144531c-.816406 1.285157-1.25 2.773438-1.25 4.296875v64h-96v-91.441406c.015625-15.902344 6.773438-31.054688 18.601562-41.6875l44.0625-39.519531c.503907-.109375 1.015626-.191407 1.53125-.238281.546876-.0625 1.097657-.097657 1.644532-.105469.699218.03125 1.394531.113281 2.082031.238281.539063.066406 1.074219.164062 1.601563.289062.765624.238282 1.511718.539063 2.230468.894532.398438.1875.800782.3125 1.191406.53125 1.101563.636718 2.117188 1.410156 3.023438 2.300781 5.316406 5.308594 5.785156 13.769531 1.089844 19.632813l-19.289063 24.105468c-2.761719 3.449219-2.203125 8.488282 1.25 11.246094.785157.617188 1.679688 1.082031 2.636719 1.363281.316406.070313.632812.125.953125.160157.457031.113281.921875.191406 1.390625.230468.128906 0 .25-.082031.386719-.089844.746093-.050781 1.484375-.214843 2.183593-.488281.339844-.074219.675782-.175781 1-.300781 1.035157-.507812 1.949219-1.230469 2.679688-2.121094l19.289062-24.113281c.929688-1.207031 1.769532-2.484375 2.511719-3.816406l.0625-.0625 26.359375-36.304688c.203125-.332031.378906-.679687.527344-1.039062.160156-.257813.304688-.523438.433594-.800781.363281-.910157.558594-1.882813.566406-2.863282v-96c0-8.835937 7.164062-16 16-16 8.839844 0 16 7.164063 16 16zm0 0"/>
      <path d="m352.40625 23.816406h16v16h-16zm0 0"/>
      <path d="m384.40625 23.816406h16v16h-16zm0 0"/>
      <path d="m368.40625 7.816406h16v16h-16zm0 0"/>
      <path d="m368.40625 39.816406h16v16h-16zm0 0"/>
      <path d="m.40625 47.816406h16v16h-16zm0 0"/>
      <path d="m48.40625 47.816406h16v16h-16zm0 0"/>
      <path d="m24.40625 23.816406h16v16h-16zm0 0"/>
      <path d="m24.40625 71.816406h16v16h-16zm0 0"/>
    </g>
  </symbol>

  <symbol id="flask" viewBox="0 0 53.657 53.657">
    <g>
      <circle cx="30.06" cy="6.457" r="3.232"/>
      <circle cx="36.525" cy="2.586" r="2.586"/>
      <path d="M47.386,44.12L33.939,22.619v-6.457h3.879v-4.525h-21.98v4.525h3.879v6.457L6.27,44.12c-0.493,0.914-0.775,1.959-0.775,3.072c0,3.57,2.894,6.465,6.465,6.465h29.737c3.57,0,6.465-2.894,6.465-6.465C48.162,46.079,47.88,45.034,47.386,44.12z M16.564,36.194l7.678-12.277v-7.756h5.172v7.756l7.678,12.277H16.564z"/>
    </g>
  </symbol>

  <symbol id="clean" viewBox="0 0 512 512">
    <g>
      <path d="m297.243 207.437-20-6.667c-7.857-2.618-16.354 1.627-18.974 9.487-2.619 7.858 1.628 16.354 9.487 18.974l20 6.667c1.573.524 3.173.773 4.745.773 6.28 0 12.133-3.975 14.229-10.261 2.62-7.858-1.627-16.353-9.487-18.973z"/>
      <path d="m287.757 274.103-20 6.667c-7.859 2.62-12.106 11.115-9.487 18.974 2.096 6.286 7.948 10.261 14.229 10.261 1.572 0 3.172-.249 4.745-.773l20-6.667c7.859-2.62 12.106-11.115 9.487-18.974-2.621-7.861-11.118-12.109-18.974-9.488z"/>
      <path d="m340 115v-15h15c8.284 0 15-6.716 15-15s-6.716-15-15-15h-15v-15c0-8.284-6.716-15-15-15s-15 6.716-15 15v15h-15c-8.284 0-15 6.716-15 15s6.716 15 15 15h15v15c0 8.284 6.716 15 15 15s15-6.716 15-15z"/>
      <path d="m285 410h-15v-15c0-8.284-6.716-15-15-15s-15 6.716-15 15v15h-15c-8.284 0-15 6.716-15 15s6.716 15 15 15h15v15c0 8.284 6.716 15 15 15s15-6.716 15-15v-15h15c8.284 0 15-6.716 15-15s-6.716-15-15-15z"/>
      <path d="m230 305v-160c0-24.813-20.187-45-45-45h-140c-24.813 0-45 20.187-45 45v160c0 24.813 20.187 45 45 45h140c24.813 0 45-20.187 45-45zm-100-79.46c0 3.979-1.58 7.794-4.394 10.606l-42.426 42.426c-2.929 2.929-6.769 4.394-10.606 4.394-3.839 0-7.678-1.464-10.606-4.394-5.858-5.857-5.858-15.355 0-21.213l38.032-38.032v-44.327c0-8.284 6.716-15 15-15s15 6.716 15 15z"/>
      <path d="m464.5 210h-60c-.613 0-1.225.075-1.819.224l-34.317 8.58c-6.411 1.601-10.958 7.166-11.327 13.696h-22.537c-8.284 0-15 6.716-15 15s6.716 15 15 15h22.536c.369 6.529 4.915 12.094 11.325 13.697l36.139 9.038v24.765h60.883c3.396-14.315 16.278-25 31.617-25 8.271 0 15-6.729 15-15v-12.5c0-26.191-21.309-47.5-47.5-47.5z"/>
      <path d="m464.5 354.243v-14.243h-60v14.243c-29.418 16.56-47.5 47.318-47.5 81.363v61.394c0 8.271 6.729 15 15 15h125c8.271 0 15-6.729 15-15v-61.394c0-34.044-18.082-64.803-47.5-81.363z"/>
      <path d="m165 33.945v-18.945c0-8.284-6.716-15-15-15h-70c-8.284 0-15 6.716-15 15v18.945c0 12.302-1.923 24.455-5.609 36.055h111.218c-3.686-11.6-5.609-23.753-5.609-36.055z"/>
      <path d="m65 416.055v18.945c0 8.284 6.716 15 15 15h70c8.284 0 15-6.716 15-15v-18.945c0-12.303 1.923-24.456 5.609-36.055h-111.218c3.686 11.6 5.609 23.753 5.609 36.055z"/>
    </g>
  </symbol>

  <symbol id="play" viewBox="0 0 294.843 294.843">
    <g>
      <path d="M278.527,79.946c-10.324-20.023-25.38-37.704-43.538-51.132c-2.665-1.97-6.421-1.407-8.392,1.257s-1.407,6.421,1.257,8.392c16.687,12.34,30.521,28.586,40.008,46.983c9.94,19.277,14.98,40.128,14.98,61.976c0,74.671-60.75,135.421-135.421,135.421S12,222.093,12,147.421S72.75,12,147.421,12c3.313,0,6-2.687,6-6s-2.687-6-6-6C66.133,0,0,66.133,0,147.421s66.133,147.421,147.421,147.421s147.421-66.133,147.421-147.421C294.842,123.977,289.201,100.645,278.527,79.946z"/>
      <path d="M109.699,78.969c-1.876,1.067-3.035,3.059-3.035,5.216v131.674c0,3.314,2.687,6,6,6s6-2.686,6-6V94.74l88.833,52.883l-65.324,42.087c-2.785,1.795-3.589,5.508-1.794,8.293c1.796,2.786,5.508,3.59,8.294,1.794l73.465-47.333c1.746-1.125,2.786-3.073,2.749-5.15c-0.037-2.077-1.145-3.987-2.93-5.05L115.733,79.029C113.877,77.926,111.575,77.902,109.699,78.969z"/>
    </g>
  </symbol>
</svg>